<svg width="20" height="20" viewBox="0 0 20 20" fill="none" xmlns="http://www.w3.org/2000/svg">
<path fill-rule="evenodd" clip-rule="evenodd" d="M0 10C0 4.47715 4.47715 0 10 0C15.5228 0 20 4.47715 20 10C20 15.5228 15.5228 20 10 20C4.47715 20 0 15.5228 0 10ZM10 2C5.58172 2 2 5.58172 2 10C2 14.4183 5.58172 18 10 18C14.4183 18 18 14.4183 18 10C18 5.58172 14.4183 2 10 2Z" fill="#F0F6F6"/>
<path fill-rule="evenodd" clip-rule="evenodd" d="M14.7071 6.70711C15.0976 6.31658 15.0976 5.68342 14.7071 5.29289C14.3166 4.90237 13.6834 4.90237 13.2929 5.29289L10 8.58579L6.70711 5.29289C6.31658 4.90237 5.68342 4.90237 5.29289 5.29289C4.90237 5.68342 4.90237 6.31658 5.29289 6.70711L8.58579 10L5.29289 13.2929C4.90237 13.6834 4.90237 14.3166 5.29289 14.7071C5.68342 15.0976 6.31658 15.0976 6.70711 14.7071L10 11.4142L13.2929 14.7071C13.6834 15.0976 14.3166 15.0976 14.7071 14.7071C15.0976 14.3166 15.0976 13.6834 14.7071 13.2929L11.4142 10L14.7071 6.70711Z" fill="#F0F6F6"/>
</svg>
