<svg width="165" height="22" viewBox="0 0 165 22" fill="none" xmlns="http://www.w3.org/2000/svg">
<path d="M155 2C149.494 2 145 6.46629 145 12C145 17.5056 149.466 22 155 22C160.506 22 165 17.5337 165 12C165 6.46629 160.534 2 155 2ZM155 16.9719C152.247 16.9719 150 14.7247 150 11.9719C150 9.2191 152.247 6.97191 155 6.97191C157.753 6.97191 160 9.2191 160 11.9719C160 14.7528 157.753 16.9719 155 16.9719Z" fill="#00B2A9"/>
<path d="M140.472 2H125.5C124.124 2 123 3.12518 123 4.50352C123 5.88186 124.124 7.00703 125.5 7.00703H130.5V19.4965C130.5 20.8748 131.624 22 133 22C134.376 22 135.5 20.8748 135.5 19.4965V7.00703H140.5C141.876 7.00703 143 5.88186 143 4.50352C142.972 3.12518 141.848 2 140.472 2Z" fill="#00B2A9"/>
<path fill-rule="evenodd" clip-rule="evenodd" d="M102.5 7C103.881 7 105 5.88071 105 4.5C105 3.11929 103.881 2 102.5 2C101.119 2 100 3.11929 100 4.5C100 5.88071 101.119 7 102.5 7ZM117.5 9C116.124 9 115 10.1685 115 11.6C115 14.4629 112.753 16.8 110 16.8C107.247 16.8 105 14.4629 105 11.6C105 10.1685 103.876 9 102.5 9C101.124 9 100 10.1685 100 11.6C100 17.3258 104.466 22 110 22C115.506 22 120 17.3551 120 11.6C120 10.1393 118.876 9 117.5 9ZM120 4.5C120 5.88071 118.881 7 117.5 7C116.119 7 115 5.88071 115 4.5C115 3.11929 116.119 2 117.5 2C118.881 2 120 3.11929 120 4.5Z" fill="#00B2A9"/>
<path d="M87 2C81.4944 2 77 6.46629 77 12C77 17.5056 81.4663 22 87 22C88.9101 22 90.7079 21.4663 92.2247 20.5112C92.618 21.382 93.4888 22 94.5 22C95.8764 22 97 20.8764 97 19.5V11.9719C97 6.46629 92.5337 2 87 2ZM87 16.9719C84.2472 16.9719 82 14.7247 82 11.9719C82 9.2191 84.2472 6.97191 87 6.97191C89.7528 6.97191 92 9.2191 92 11.9719C92 14.7528 89.7528 16.9719 87 16.9719Z" fill="#00B2A9"/>
<path d="M71.5 2C70.1236 2 69 3.12518 69 4.50352V19.4965C69 20.8748 70.1236 22 71.5 22C72.8764 22 74 20.8748 74 19.4965V4.50352C74 3.12518 72.8764 2 71.5 2Z" fill="#333333"/>
<path d="M56 2.44444C54.1742 2.44444 52.4888 2.93883 51 3.7628V2.44444C51 1.09863 49.8764 0 48.5 0C47.1236 0 46 1.09863 46 2.44444V12.2222C46 17.6055 50.4663 22 56 22C61.5056 22 66 17.633 66 12.2222C65.9719 6.81149 61.5056 2.44444 56 2.44444ZM56 17.0836C53.2472 17.0836 51 14.8864 51 12.1948C51 9.50312 53.2472 7.30587 56 7.30587C58.7528 7.30587 61 9.50312 61 12.1948C60.9719 14.9139 58.7528 17.0836 56 17.0836Z" fill="#333333"/>
<path d="M33 2C27.4663 2 23 6.47257 23 11.9859C23 17.5274 27.4663 22 33 22C38.5056 22 43 17.5274 43 11.9859C42.9719 6.47257 38.5056 2 33 2ZM33 16.993C30.2472 16.993 28 14.7426 28 11.9859C28 9.22925 30.2472 6.9789 33 6.9789C35.7528 6.9789 38 9.22925 38 11.9859C37.9719 14.7707 35.7528 16.993 33 16.993Z" fill="#333333"/>
<path d="M13.736 2C12.3315 2 11.0393 2.47753 10 3.26405C8.96067 2.47753 7.66854 2 6.26405 2C2.7809 2 0 4.7809 0 8.23596V19.4719C0 20.8483 1.1236 21.9719 2.5 21.9719C3.8764 21.9719 5 20.8483 5 19.4719V8.23596C5 7.53371 5.5618 6.97191 6.23596 6.97191C6.9382 6.97191 7.5 7.53371 7.5 8.23596V19.4719C7.5 20.8483 8.6236 21.9719 10 21.9719C11.3764 21.9719 12.5 20.8483 12.5 19.4719V8.20787C12.5281 7.53371 13.0618 7 13.736 7C14.4382 7 15 7.5618 15 8.26405V19.5C15 20.8764 16.1236 22 17.5 22C18.8764 22 20 20.8764 20 19.5V10.2303V9.47191V8.23596C19.9719 4.7809 17.191 2 13.736 2Z" fill="#333333"/>
</svg>
